# xmcd
#
# Track frame offsets:
#	150
#	15772
#	29575
#	42697
#	58162
#	73332
#	87912
#	103297
#	119637
#	131227
#
# Disc length: 1910 seconds
#
# Revision: 2
# Processed by: cddbd v1.5.2PL0 Copyright (c) Steve Scherf et al.
# Submitted via: audiograbber 1.83.01
#
DISCID=9907740a
DTITLE=Tammy Wynette - Next To You
DYEAR=1989
DGENRE=Country
TTITLE0=Next To You
TTITLE1=I'm So Afraid Of Losing You Again
TTITLE2=You Left Memories Layin' ( All Over The Place )
TTITLE3=When A Girl Becomes A Wife
TTITLE4=If You Let Him Drive You Crazy ( He Will )
TTITLE5=The Note
TTITLE6=Thank The Cowboy For The Ride
TTITLE7=I Almost Forgot
TTITLE8=We Called It Everything But Quits
TTITLE9=Liar's Roses
EXTD=
EXTT0=
EXTT1=
EXTT2=
EXTT3=
EXTT4=
EXTT5=
EXTT6=
EXTT7=
EXTT8=
EXTT9=
PLAYORDER=
